<?xml version="1.0" standalone="no"?>
<!DOCTYPE svg PUBLIC "-//W3C//DTD SVG 20010904//EN"
 "http://www.w3.org/TR/2001/REC-SVG-20010904/DTD/svg10.dtd">
<svg version="1.0" xmlns="http://www.w3.org/2000/svg"
 width="225.000000pt" height="225.000000pt" viewBox="0 0 225.000000 225.000000"
 preserveAspectRatio="xMidYMid meet">
<metadata>
Created by potrace 1.16, written by Peter Selinger 2001-2019
</metadata>
<g transform="translate(0.000000,225.000000) scale(0.100000,-0.100000)"
fill="#000000" stroke="none">
<path d="M329 2170 c-99 -17 -183 -83 -228 -179 l-26 -56 0 -811 0 -811 35
-69 c40 -78 104 -134 179 -156 69 -20 1618 -19 1676 1 55 19 127 73 157 118
55 83 53 55 53 924 l0 806 -35 69 c-37 73 -98 129 -168 155 -30 11 -189 14
-817 15 -429 1 -801 -2 -826 -6z m557 -596 c-49 -165 -67 -385 -43 -511 17
-90 49 -173 67 -173 49 0 455 280 680 468 52 44 96 79 98 77 7 -6 -68 -215
-97 -273 -65 -129 -290 -278 -521 -346 l-85 -24 40 -17 c125 -54 285 -24 418
78 26 20 47 32 47 25 0 -6 -18 -49 -40 -94 -47 -97 -118 -179 -192 -219 -47
-27 -62 -30 -138 -30 -74 0 -92 4 -139 28 -66 35 -141 105 -183 169 -17 26
-37 48 -45 48 -15 0 -18 17 -3 22 6 2 4 22 -5 52 -8 27 -15 88 -15 135 0 141
38 294 151 609 17 50 21 32 5 -24z m170 -115 c24 -41 73 -75 128 -90 53 -15
164 -5 247 21 35 11 66 20 69 20 3 0 -39 -24 -92 -53 -139 -77 -250 -161 -334
-251 l-73 -78 -17 38 c-28 63 -31 246 -5 369 11 55 26 118 33 140 l12 40 6
-61 c4 -34 16 -77 26 -95z"/>
</g>
</svg>
